<?xml version="1.0" encoding="utf-8"?>
<svg width="16px" height="16px" viewBox="0 0 16 16" xmlns="http://www.w3.org/2000/svg">
  <g transform="matrix(0.003123, 0, 0, -0.003121, -0.005988, 15.965807)" fill="#000000" stroke="none">
    <path d="M2240 5105 c-389 -48 -766 -188 -1091 -404 -504 -335 -871 -825&#10;-1043 -1395 -41 -132 -81 -333 -96 -468 -13 -125 -13 -431 0 -556 108 -1014&#10;825 -1880 1804 -2176 132 -41 333 -81 468 -96 125 -13 431 -13 556 0 592 63&#10;1141 332 1563 766 289 299 494 645 613 1038 74 243 106 468 106 746 0 209 -10&#10;324 -46 505 -181 920 -867 1676 -1768 1949 -132 41 -333 81 -468 96 -131 14&#10;-469 11 -598 -5z m-415 -615 c190 -27 428 -144 654 -322 40 -32 77 -58 81 -58&#10;4 0 41 26 81 58 167 132 361 241 517 291 356 115 650 -48 741 -411 42 -165 48&#10;-393 15 -603 -8 -49 -14 -95 -14 -101 0 -7 37 -27 83 -45 910 -361 987 -996&#10;170 -1402 -48 -24 -125 -58 -170 -76 -46 -18 -83 -38 -83 -45 0 -6 5 -38 10&#10;-71 36 -214 32 -465 -10 -633 -62 -246 -223 -410 -435 -442 -221 -35 -519 82&#10;-824 322 -40 32 -77 58 -81 58 -4 0 -41 -26 -81 -58 -167 -132 -361 -241 -517&#10;-291 -229 -74 -439 -34 -582 109 -169 169 -235 513 -174 907 8 51 14 97 14&#10;102 0 5 -37 24 -82 42 -911 361 -988 996 -171 1402 48 24 125 58 171 76 45 18&#10;82 37 82 42 0 5 -6 51 -14 102 -61 396 4 736 175 906 70 71 164 120 258 137&#10;84 15 101 16 186 4z"/>
    <path d="M1632 4295 c-166 -52 -249 -216 -259 -514 -5 -145 11 -376 26 -386 4&#10;-2 60 10 125 26 100 24 195 41 462 84 24 4 42 19 75 63 65 87 184 226 278 325&#10;71 74 83 91 71 101 -94 73 -196 144 -254 178 -197 115 -398 163 -524 123z"/>
    <path d="M3245 4292 c-163 -42 -323 -131 -515 -284 l-34 -26 85 -89 c94 -99&#10;213 -238 278 -325 33 -44 51 -59 75 -63 267 -43 362 -60 462 -84 76 -19 121&#10;-26 125 -19 3 5 12 56 19 113 18 148 9 397 -19 493 -42 144 -107 233 -200 275&#10;-64 29 -184 32 -276 9z"/>
    <path d="M2474 3768 c-78 -80 -204 -222 -204 -229 0 -2 131 -4 290 -4 160 0&#10;290 1 290 2 0 15 -277 313 -290 313 -3 0 -42 -37 -86 -82z"/>
    <path d="M2260 3344 c-25 -2 -69 -7 -98 -10 l-53 -6 -84 -126 c-100 -153 -222&#10;-365 -301 -524 l-59 -118 59 -117 c79 -160 201 -372 301 -525 l84 -127 48 -8&#10;c63 -10 721 -10 796 0 l57 9 62 91 c96 143 217 350 304 520 l79 155 -67 134&#10;c-87 173 -190 352 -293 509 -73 112 -87 127 -116 133 -39 7 -651 16 -719 10z&#10;m395 -583 c82 -37 129 -120 123 -217 -5 -74 -37 -130 -100 -171 -36 -24 -51&#10;-28 -118 -28 -67 0 -82 4 -118 28 -63 41 -95 97 -100 171 -9 136 84 236 218&#10;236 32 0 72 -8 95 -19z"/>
    <path d="M1700 3270 c-143 -29 -249 -55 -257 -64 -10 -10 115 -406 128 -406 4&#10;0 41 62 82 138 41 75 102 181 136 235 72 113 78 127 60 126 -8 0 -75 -13 -149&#10;-29z"/>
    <path d="M3260 3294 c0 -3 37 -68 83 -143 46 -75 109 -184 141 -244 31 -59 61&#10;-105 65 -103 18 11 139 392 128 402 -9 9 -109 34 -260 64 -165 33 -157 32&#10;-157 24z"/>
    <path d="M1145 3106 c-124 -52 -149 -65 -255 -134 -102 -66 -224 -186 -265&#10;-262 -27 -50 -30 -64 -30 -150 0 -86 3 -100 30 -150 59 -109 233 -258 401&#10;-343 84 -42 228 -97 234 -90 4 5 23 67 44 138 21 72 65 198 97 281 33 83 59&#10;157 59 165 0 8 -25 77 -56 154 -30 77 -75 205 -98 285 -24 79 -48 145 -52 146&#10;-5 2 -54 -17 -109 -40z"/>
    <path d="M3855 3138 c-2 -7 -22 -75 -45 -151 -23 -76 -66 -200 -96 -275 -30&#10;-75 -54 -144 -54 -153 0 -9 18 -60 40 -115 45 -109 108 -293 135 -394 10 -36&#10;21 -68 25 -73 7 -8 150 47 240 93 168 85 333 227 395 340 27 50 30 63 30 150&#10;0 86 -3 100 -30 150 -59 109 -233 258 -401 343 -44 22 -222 97 -231 97 -2 0&#10;-5 -6 -8 -12z"/>
    <path d="M1517 2178 c-57 -175 -80 -258 -74 -264 14 -15 405 -99 415 -90 2 3&#10;-34 67 -80 143 -47 76 -111 186 -142 246 -31 59 -60 107 -64 107 -4 0 -29 -64&#10;-55 -142z"/>
    <path d="M3470 2188 c-40 -73 -104 -184 -142 -246 -39 -62 -68 -115 -66 -118&#10;9 -9 401 75 415 90 11 10 -110 391 -128 401 -4 3 -40 -54 -79 -127z"/>
    <path d="M1396 1718 c-17 -51 -28 -235 -23 -374 8 -218 38 -326 123 -431 147&#10;-181 482 -117 852 165 39 30 72 57 72 60 0 2 -37 44 -83 91 -92 98 -211 237&#10;-276 323 -33 44 -51 59 -75 63 -313 50 -471 81 -569 111 -9 3 -19 0 -21 -8z"/>
    <path d="M3590 1699 c-97 -24 -189 -41 -456 -84 -24 -4 -42 -19 -75 -63 -65&#10;-86 -184 -225 -276 -323 -46 -47 -83 -89 -83 -91 0 -8 139 -112 217 -162 173&#10;-111 311 -160 458 -161 90 0 106 3 157 28 141 69 205 222 215 505 6 183 -12&#10;384 -35 381 -4 -1 -59 -14 -122 -30z"/>
    <path d="M2270 1582 c0 -8 182 -211 234 -262 l56 -54 56 54 c52 51 234 254&#10;234 262 0 2 -130 3 -290 3 -159 0 -290 -1 -290 -3z"/>
  </g>
</svg>